<?xml version="1.0" encoding="UTF-8"?>
<svg width="42px" height="42px" viewBox="0 0 42 42" version="1.1" xmlns="http://www.w3.org/2000/svg" xmlns:xlink="http://www.w3.org/1999/xlink">
    <title>Brand</title>
    <g id="oxygen" stroke="none" stroke-width="1" fill="none" fill-rule="evenodd">
        <g id="Oxygen" transform="translate(-52, -26)" fill="#00B2A0">
            <g id="Brand" transform="translate(52, 26)">
                <path d="M21,5 C29.8,5 37,12.2 37,21 C37,29.8 29.8,37 21,37 C12.2,37 5,29.8 5,21 C5,12.2 12.2,5 21,5 L21,5 Z M21,0 C9.4,0 0,9.4 0,21 C0,32.6 9.4,42 21,42 C32.6,42 42,32.6 42,21 C42,9.4 32.6,0 21,0 L21,0 L21,0 Z" id="Shape"></path>
            </g>
        </g>
    </g>
</svg>