<?xml version="1.0" encoding="UTF-8"?>
<svg width="49.1209906px" height="31.2045991px" viewBox="0 0 49.1209906 31.2045991" version="1.1" xmlns="http://www.w3.org/2000/svg" xmlns:xlink="http://www.w3.org/1999/xlink">
    <title>speaker</title>
    <g id="oxygen" stroke="none" stroke-width="1" fill="none" fill-rule="evenodd">
        <g id="Oxygen" transform="translate(-938.5574, -1824.5715)">
            <g id="Our-Expertise" transform="translate(0, 1243)">
                <g id="services" transform="translate(138.0021, 577.8422)">
                    <g id="#3" transform="translate(800.5553, 2.1578)">
                        <g id="speaker" transform="translate(0, 1.5715)">
                            <g id="icomoon-ignore" transform="translate(0.0322, -8.926)"></g>
                            <path d="M0,9.95389151 L0,21.3963443 L4.90412736,21.3963443 L4.90412736,31.2045991 L6.53832547,31.2045991 L6.53832547,21.3963443 L19.1121462,21.3963443 L31.0512972,31.0574292 L31.0512972,0 L19.0370283,9.95389151 L0,9.95389151 L0,9.95389151 Z M1.63573113,19.7606132 L1.63573113,11.5880896 L8.1740566,11.5880896 L8.1740566,19.7606132 L1.63573113,19.7606132 L1.63573113,19.7606132 Z M20.0794811,11.2125 L29.415566,3.47688679 L29.415566,27.6311321 L19.6900943,19.7621462 L9.8067217,19.7621462 L9.8067217,11.5896226 L19.6241745,11.5896226 L20.0779481,11.214033 L20.0794811,11.2125 Z" id="Shape" fill="#00B2A0"></path>
                            <path d="M42.3634434,1.44103774 L41.1876179,2.61686321 C45.0125,5.61084906 47.4852594,10.2589623 47.4852594,15.4819575 C47.4852594,20.8444575 44.8775943,25.5983491 40.8764151,28.5800708 L42.0599057,29.7635613 C46.3508255,26.4783019 49.1209906,21.3043632 49.1209906,15.4819575 C49.1209906,9.80058962 46.4811321,4.73549528 42.3649764,1.44103774 L42.3634434,1.44103774 Z" id="Shape" fill="#00B2A0"></path>
                            <path d="M37.1113208,6.71079009 L35.9232311,7.89887972 C38.4465802,9.49321934 40.1313679,12.2986439 40.1313679,15.4980542 C40.1313679,18.8385024 38.2963443,21.7527712 35.584434,23.3026533 L36.7755896,24.493809 C39.7695755,22.6143278 41.7670991,19.293809 41.7670991,15.4980542 C41.7670991,11.8433373 39.9213443,8.62246462 37.1128538,6.71079009 L37.1113208,6.71079009 Z" id="Shape" fill="#00B2A0"></path>
                        </g>
                    </g>
                </g>
            </g>
        </g>
    </g>
</svg>