<?xml version="1.0" encoding="UTF-8"?>
<svg width="49.8361702px" height="49.9285106px" viewBox="0 0 49.8361702 49.9285106" version="1.1" xmlns="http://www.w3.org/2000/svg" xmlns:xlink="http://www.w3.org/1999/xlink">
    <title>vector</title>
    <g id="oxygen" stroke="none" stroke-width="1" fill="none" fill-rule="evenodd">
        <g id="Oxygen" transform="translate(-138.0021, -1828.1787)">
            <g id="Our-Expertise" transform="translate(0, 1243)">
                <g id="services" transform="translate(138.0021, 577.8422)">
                    <g id="#1" transform="translate(0, 5.1578)">
                        <g id="vector" transform="translate(0, 2.1787)">
                            <g id="icomoon-ignore" transform="translate(-0.0021, -2.1787)"></g>
                            <path d="M45.3885106,14.6161702 L43.7544681,16.2502128 C40.2140426,13.1642553 35.6744681,11.4382979 30.9544681,11.4382979 C27.7765957,11.4382979 24.6004255,12.2553191 21.8770213,13.707234 L28.7757447,6.80851064 C29.3204255,7.17106383 29.9553191,7.35319149 30.5919149,7.35319149 C31.4991489,7.35319149 32.4080851,6.9906383 33.1331915,6.26382979 C34.5851064,4.81191489 34.5851064,2.5412766 33.1331915,1.0893617 C32.406383,0.362553191 31.4991489,0 30.5919149,0 C29.6846809,0 28.7757447,0.362553191 28.0506383,1.0893617 C26.8710638,2.36085106 26.6889362,4.17531915 27.5059574,5.53702128 L18.7910638,14.2519149 L17.1570213,12.6178723 L12.7093617,17.0655319 L14.3434043,18.6995745 L5.44638298,27.5965957 C4.90170213,27.2340426 4.26680851,27.0519149 3.63021277,27.0519149 C2.72297872,27.0519149 1.81404255,27.4144681 1.08893617,28.1412766 C-0.362978723,29.5931915 -0.362978723,31.8638298 1.08893617,33.3157447 C1.81574468,33.9506383 2.72297872,34.3148936 3.63021277,34.3148936 C4.53744681,34.3148936 5.44638298,33.9523404 6.17148936,33.2255319 C7.35106383,32.0459574 7.53319149,30.2297872 6.71617021,28.7778723 L13.6148936,21.8791489 C9.98425532,28.8697872 10.8012766,37.5846809 16.1561702,43.7565957 L14.5221277,45.4808511 L19.0617021,49.9285106 L23.5093617,45.4808511 L19.0617021,41.0331915 L17.5178723,42.5770213 C12.2531915,36.4034043 11.9808511,27.5080851 16.4285106,20.9719149 L17.1553191,21.6987234 L21.6948936,17.2510638 L20.8778723,16.5242553 C23.7834043,14.4357447 27.3238298,13.346383 30.9544681,13.346383 C35.2217021,13.346383 39.2148936,14.8902128 42.4829787,17.613617 L40.8489362,19.1574468 L45.3885106,23.6051064 L49.8361702,19.1574468 L45.3885106,14.6178723 L45.3885106,14.6161702 Z M20.9680851,45.4808511 L19.0617021,47.387234 L17.1553191,45.4808511 L19.0617021,43.5744681 L20.9680851,45.4808511 L20.9680851,45.4808511 Z M29.3204255,2.45106383 C29.6829787,2.08851064 30.1374468,1.90638298 30.5919149,1.90638298 C31.046383,1.90638298 31.4991489,2.08851064 31.8634043,2.45106383 C32.5902128,3.17787234 32.5902128,4.26723404 31.8634043,4.99234043 C31.5008511,5.35489362 31.046383,5.53702128 30.5919149,5.53702128 C30.1374468,5.53702128 29.6846809,5.35489362 29.3204255,4.99234043 C28.593617,4.35744681 28.593617,3.17617021 29.3204255,2.45106383 L29.3204255,2.45106383 Z M4.9,31.9540426 C4.53744681,32.3165957 4.08297872,32.4987234 3.62851064,32.4987234 C3.17404255,32.4987234 2.7212766,32.3165957 2.35702128,31.9540426 C1.99446809,31.6817021 1.81234043,31.227234 1.81234043,30.6825532 C1.81234043,30.2280851 1.99446809,29.7753191 2.35702128,29.4110638 C2.71957447,29.0468085 3.17404255,28.866383 3.62851064,28.866383 C4.08297872,28.866383 4.53574468,29.0485106 4.9,29.4110638 C5.62680851,30.1378723 5.62680851,31.3174468 4.9,31.9523404 L4.9,31.9540426 Z M17.0651064,19.1540426 L15.1587234,17.2476596 L17.0651064,15.3412766 L18.9714894,17.2476596 L17.0651064,19.1540426 L17.0651064,19.1540426 Z M45.3885106,21.0604255 L43.4821277,19.1540426 L45.3885106,17.2476596 L47.2948936,19.1540426 L45.3885106,21.0604255 L45.3885106,21.0604255 Z" id="Shape" fill="#00B2A0"></path>
                        </g>
                    </g>
                </g>
            </g>
        </g>
    </g>
</svg>